<?xml version="1.0" standalone="no"?><!DOCTYPE svg PUBLIC "-//W3C//DTD SVG 1.1//EN" "http://www.w3.org/Graphics/SVG/1.1/DTD/svg11.dtd"><svg t="1538189947317" class="icon" style="" viewBox="0 0 1024 1024" version="1.1" xmlns="http://www.w3.org/2000/svg" p-id="1911" xmlns:xlink="http://www.w3.org/1999/xlink" width="128" height="128"><defs><style type="text/css"></style></defs><path d="M402.944 707.584c-50.688 45.056-83.968 42.496-118.272 8.192l-38.912-41.984c-34.304-34.304-34.304-90.112 0-124.416L413.184 381.44c34.304-34.304 89.6-34.304 123.904 0l30.72 31.232c26.624 26.624 32.256 65.536 17.92 97.792l74.752 57.344c51.2-51.2 51.2-134.656 0-186.368l-92.672-93.184c-51.2-51.2-134.144-51.2-185.856 0l-229.376 230.4c-51.2 51.2-51.2 134.656 0 186.368l92.672 93.184c51.2 51.2 134.144 51.2 185.856 0l88.576-91.648-63.488-60.928-53.248 61.952zM970.24 319.488l-92.672-93.184c-51.2-51.2-134.144-51.2-185.856 0 0 0 3.584-1.024-50.176 53.248l61.44 58.88 27.648-30.208c34.304-34.304 89.6-34.304 123.904 0l30.72 31.232c34.304 34.304 34.304 90.112 0 124.416l-151.04 157.184c-34.304 34.304-89.6 34.304-123.904 0l-25.6-41.984c-53.76-39.936-37.376-49.664-32.768-76.8l-68.096-67.584c-51.2 51.2-51.2 134.656 0 186.368l92.672 93.184c51.2 51.2 134.144 51.2 185.856 0l207.36-208.384c73.728-84.48 0.512-186.368 0.512-186.368z" p-id="1912"></path></svg>