<?xml version="1.0" standalone="no"?><!DOCTYPE svg PUBLIC "-//W3C//DTD SVG 1.1//EN" "http://www.w3.org/Graphics/SVG/1.1/DTD/svg11.dtd"><svg t="1538190007731" class="icon" style="" viewBox="0 0 1024 1024" version="1.1" xmlns="http://www.w3.org/2000/svg" p-id="2721" xmlns:xlink="http://www.w3.org/1999/xlink" width="128" height="128"><defs><style type="text/css"></style></defs><path d="M493.460837 323.417302C713.620837 159.886884 420.090047 127.190326 533.611163 0c-101.066419 18.170047-81.68186 142.336-60.892279 165.054512 20.741953 22.718512 109.353674 28.124279 20.741953 158.36279z m-106.424558 0c180.295442-133.929674-60.106419-154.552558 32.88707-258.738604-82.777302 14.883721-66.893395 116.593116-49.890233 135.215628 17.003163 18.598698 89.564279 16.884093 17.003163 123.522976z m552.674233 213.444465c-4.21507-33.649116-24.314047-106.210233-128.35721-103.114418C806.900093 406.932837 776.322977 381.023256 750.508651 381.023256h-595.348837c-29.029209 0-46.961116 31.267721-46.961116 62.987907h-0.714419s0 7.977674 0.714419 21.837395v1.190698c0 0.714419 0.166698 1.357395 0.190511 2.071814 37.292651 294.888186 144.169674 404.313302 202.537675 424.412279 40.05507 13.788279 284.457674 5.739163 306.96186 3.429209 28.862512-2.95293 83.205953-107.043721 110.520558-150.40893 6.858419 1.690791 33.125209 15.621953 93.30307 0.309581 84.182326-21.432558 127.261767-135.715721 117.99814-209.991442zM178.973767 452.465116c24.837953-1.14307 522.835349 1.357395 547.720931 0 36.506791-2.000372-106.019721 361.090977-163.030326 361.067163-62.34493-0.047628-160.053581-0.071442-218.278698-1.905116C255.24986 808.769488 160.922791 453.274791 178.973767 452.465116z m632.593861 232.257489c-6.191628 1.976558-12.40707 3.214884-18.55107 4.143628a114.330791 114.330791 0 0 1-22.218418 1.285953c-1.26214-0.071442-2.476651-0.333395-3.714977-0.404837-3.024372-0.261953-5.90586-0.833488-8.811163-1.333582 38.697674-75.442605 50.96186-146.527256 53.057488-192.488186 36.98307 4.786605 58.106047 39.507349 58.106047 64.250047 4.429395 55.248372-13.240558 100.018605-57.867907 124.546977zM83.717953 952.55814s-9.954233 71.44186 61.868652 71.44186h682.579348c57.796465 0 65.226419-71.44186 65.226419-71.44186h-809.674419z" p-id="2722"></path></svg>